<?xml version="1.0" standalone="no"?>
<!DOCTYPE svg PUBLIC "-//W3C//DTD SVG 20010904//EN"
 "http://www.w3.org/TR/2001/REC-SVG-20010904/DTD/svg10.dtd">
<svg version="1.0" xmlns="http://www.w3.org/2000/svg"
 width="159.000000pt" height="105.000000pt" viewBox="0 0 159.000000 105.000000"
 preserveAspectRatio="xMidYMid meet">

<g transform="translate(0.000000,105.000000) scale(0.100000,-0.100000)"
fill="#000000" stroke="none">
<path d="M1450 873 c-191 -209 -413 -448 -421 -451 -10 -4 -90 118 -84 128 3
5 -3 16 -12 26 -16 16 -16 17 -1 11 12 -4 15 -2 11 9 -3 7 -1 14 5 14 6 0 9
-11 8 -25 -4 -34 10 -22 17 14 7 34 43 75 57 66 6 -4 10 0 10 7 1 7 6 3 13 -9
l12 -23 15 23 c8 12 14 29 15 37 0 8 6 14 13 12 9 -2 9 3 -2 20 -12 19 -12 25
-1 35 13 12 25 7 25 -9 0 -5 -4 -6 -10 -3 -6 4 -7 -1 -3 -11 5 -14 9 -11 21
12 8 16 13 30 11 32 -2 2 4 8 14 13 9 6 15 14 12 20 -4 5 -1 9 4 9 6 0 11 5
11 11 0 8 -5 8 -15 -1 -10 -8 -15 -9 -15 -2 0 6 8 16 18 21 9 6 12 11 6 11
-19 0 -37 -28 -38 -59 -1 -22 -4 -27 -13 -19 -9 7 -28 -7 -67 -48 -57 -58 -65
-70 -43 -59 6 3 4 0 -6 -7 -10 -7 -39 -32 -64 -55 -42 -37 -45 -43 -33 -60 31
-40 -45 35 -84 83 -22 28 -90 108 -151 179 -60 70 -116 135 -123 144 -16 21
153 -326 202 -414 31 -54 37 -73 32 -103 -3 -21 -3 -31 0 -24 3 6 11 12 17 12
7 0 7 -4 -1 -12 -17 -17 -84 -21 -76 -5 3 7 -1 4 -9 -5 -16 -20 -34 -23 -39
-7 -5 15 -58 -10 -58 -27 0 -7 -4 -15 -9 -18 -5 -4 -7 4 -4 16 3 18 2 19 -5 8
-5 -8 -8 -26 -7 -40 2 -14 4 -29 4 -33 1 -5 5 -6 10 -3 5 4 15 -7 22 -23 12
-27 69 -72 69 -54 0 4 5 1 10 -7 5 -8 7 -22 4 -32 -2 -9 0 -19 6 -23 9 -5 15
15 11 38 -1 9 11 9 28 -2 17 -11 7 -41 -14 -41 -10 0 -13 -5 -9 -12 4 -6 3 -8
-2 -5 -6 3 -16 -4 -24 -16 -12 -21 -12 -21 5 -7 10 8 20 14 22 13 7 -6 26 -3
20 3 -3 3 3 15 13 27 11 11 17 24 14 29 -4 5 8 23 25 40 21 21 28 34 20 38 -8
6 -8 13 1 29 14 28 -2 51 -30 44 -12 -3 -20 0 -20 6 0 7 4 9 10 6 6 -3 11 1
11 9 3 29 4 34 12 40 4 3 5 3 2 -1 -3 -3 3 -15 12 -25 16 -18 16 -18 -3 -12
-17 7 -17 5 3 -17 15 -16 21 -33 18 -49 -4 -23 -3 -23 9 -8 7 10 15 18 17 18
3 0 31 -54 64 -119 32 -66 62 -118 65 -116 4 3 38 55 75 117 38 62 83 136 100
163 18 28 105 172 195 320 90 149 170 280 178 293 8 12 13 22 11 22 -2 -1 -56
-58 -119 -127z m-363 -161 c-10 -10 -17 -26 -17 -35 0 -16 -2 -16 -18 1 -11 9
-16 21 -14 27 3 5 7 4 9 -2 3 -8 11 -5 24 8 24 24 38 25 16 1z m-447 -356 c0
-2 -8 -10 -17 -17 -16 -13 -17 -12 -4 4 13 16 21 21 21 13z m187 -50 c-1 -23
-5 -31 -13 -25 -6 5 -10 19 -8 31 3 29 2 28 14 28 5 0 9 -15 7 -34z m-28 -72
c-9 -11 -15 -11 -25 -3 -18 15 -18 14 11 15 21 2 24 -1 14 -12z"/>
<path d="M343 849 c7 -11 18 -17 25 -14 8 3 11 -3 8 -20 -3 -14 -1 -23 5 -20
5 4 9 1 9 -4 0 -6 8 -11 18 -11 15 -1 15 -2 -3 -17 -16 -12 -16 -14 -3 -10 10
3 20 2 23 -3 4 -6 0 -10 -7 -10 -9 0 -9 -3 2 -10 13 -9 13 -10 0 -10 -11 0
-12 -3 -3 -8 6 -4 17 -20 22 -35 10 -26 31 -30 31 -6 0 6 -4 7 -10 4 -6 -3
-10 4 -10 17 0 22 0 22 14 2 16 -23 10 -67 -8 -58 -6 3 1 -5 15 -18 38 -33 51
-62 36 -78 -8 -9 -8 -11 -1 -7 13 7 27 -19 19 -33 -3 -4 1 -13 8 -18 10 -9 13
-5 13 16 0 15 -4 30 -9 33 -6 4 -6 18 1 38 8 23 8 31 0 31 -6 0 -9 2 -6 5 8 9
38 -6 32 -16 -3 -5 3 -6 13 -3 11 3 9 0 -5 -8 -12 -8 -19 -18 -15 -23 4 -4 2
-5 -4 -1 -15 8 -18 -10 -3 -19 5 -3 17 3 26 13 16 19 17 19 36 0 11 -11 16
-23 12 -26 -3 -4 -9 -1 -11 6 -5 13 -33 17 -33 4 0 -4 6 -14 13 -22 6 -8 2 -7
-9 3 -19 16 -22 16 -27 2 -4 -8 -1 -15 4 -15 7 0 4 -10 -5 -25 -9 -14 -12 -25
-6 -25 12 0 34 -48 31 -70 -1 -10 3 -9 14 5 9 11 19 20 23 20 21 2 52 18 52
27 0 6 9 3 20 -7 20 -18 21 -18 14 0 -5 13 -4 16 4 11 20 -12 13 7 -14 39 -15
17 -23 24 -20 18 5 -8 2 -11 -8 -7 -9 3 -12 12 -9 21 4 11 2 14 -5 9 -7 -4
-12 -1 -12 7 0 8 -15 30 -34 50 -18 20 -31 39 -28 42 3 3 -4 8 -16 12 -13 3
-22 13 -22 24 0 11 -5 19 -11 19 -5 0 -7 -5 -3 -12 4 -7 3 -8 -4 -4 -6 4 -8
14 -5 23 4 11 3 14 -5 9 -7 -4 -12 -3 -12 3 0 6 -8 7 -17 4 -12 -5 -15 -2 -10
9 3 9 3 19 -1 23 -4 4 -7 10 -7 13 0 4 -8 16 -18 27 -10 11 -32 38 -50 60 -33
42 -77 61 -54 24z m62 -39 c3 -5 2 -10 -4 -10 -5 0 -13 5 -16 10 -3 6 -2 10 4
10 5 0 13 -4 16 -10z m45 -76 c0 -7 -4 -15 -9 -18 -5 -4 -8 2 -6 11 1 10 -3
25 -9 33 -10 13 -9 13 7 1 9 -7 17 -19 17 -27z m60 -100 c0 -8 -7 -14 -16 -14
-13 0 -14 3 -5 13 6 8 7 18 3 22 -4 5 -1 5 6 1 6 -4 12 -14 12 -22z m154 -188
c-3 -9 -10 -16 -15 -16 -6 0 -5 9 1 21 13 24 24 20 14 -5z"/>
<path d="M1013 651 c-13 -10 -30 -45 -38 -79 -3 -18 -11 -30 -16 -27 -5 4 -6
-1 -3 -9 7 -18 31 -28 39 -16 3 5 1 19 -5 31 -10 19 -10 20 8 10 17 -9 21 -7
26 12 9 35 7 40 -11 26 -16 -12 -17 -12 -7 1 7 8 14 24 17 35 4 19 5 18 6 -2
2 -34 21 -39 21 -5 0 27 -17 38 -37 23z"/>
<path d="M665 230 c-4 -6 -1 -10 5 -10 6 0 8 -5 4 -12 -4 -6 -3 -8 4 -4 13 8
21 -5 24 -38 2 -19 5 -23 16 -14 9 8 10 13 1 18 -6 5 -8 17 -4 31 5 19 4 21
-4 9 -9 -13 -11 -13 -11 1 0 19 -26 33 -35 19z"/>
</g>
</svg>
